<?xml version="1.0" encoding="UTF-8" standalone="no"?>
<!-- Created with Inkscape (http://www.inkscape.org/) -->

<svg
   xmlns:osb="http://www.openswatchbook.org/uri/2009/osb"
   xmlns:dc="http://purl.org/dc/elements/1.1/"
   xmlns:cc="http://creativecommons.org/ns#"
   xmlns:rdf="http://www.w3.org/1999/02/22-rdf-syntax-ns#"
   xmlns:svg="http://www.w3.org/2000/svg"
   xmlns="http://www.w3.org/2000/svg"
   xmlns:sodipodi="http://sodipodi.sourceforge.net/DTD/sodipodi-0.dtd"
   xmlns:inkscape="http://www.inkscape.org/namespaces/inkscape"
   width="744.09448819"
   height="1052.3622047"
   id="svg2985"
   version="1.1"
   inkscape:version="0.48.2 r9819"
   sodipodi:docname="hanging_nodes.svg">
  <defs
     id="defs2987">
    <marker
       inkscape:stockid="Arrow1Lstart"
       orient="auto"
       refY="0.0"
       refX="0.0"
       id="Arrow1Lstart"
       style="overflow:visible">
      <path
         id="path3965"
         d="M 0.0,0.0 L 5.0,-5.0 L -12.5,0.0 L 5.0,5.0 L 0.0,0.0 z "
         style="fill-rule:evenodd;stroke:#000000;stroke-width:1.0pt;marker-start:none"
         transform="scale(0.8) translate(12.5,0)" />
    </marker>
    <linearGradient
       id="linearGradient3769"
       osb:paint="solid">
      <stop
         style="stop-color:#000000;stop-opacity:1;"
         offset="0"
         id="stop3771" />
    </linearGradient>
    <marker
       inkscape:stockid="Arrow1Lstart"
       orient="auto"
       refY="0"
       refX="0"
       id="Arrow1Lstart-2"
       style="overflow:visible">
      <path
         inkscape:connector-curvature="0"
         id="path3965-6"
         d="M 0,0 5,-5 -12.5,0 5,5 0,0 z"
         style="fill-rule:evenodd;stroke:#000000;stroke-width:1pt;marker-start:none"
         transform="matrix(0.8,0,0,0.8,10,0)" />
    </marker>
  </defs>
  <sodipodi:namedview
     id="base"
     pagecolor="#ffffff"
     bordercolor="#ffffff"
     borderopacity="0.0"
     inkscape:pageopacity="0.0"
     inkscape:pageshadow="0"
     inkscape:zoom="2.1868843"
     inkscape:cx="196.22794"
     inkscape:cy="577.14285"
     inkscape:document-units="px"
     inkscape:current-layer="layer1"
     showgrid="false"
     showguides="false"
     inkscape:snap-global="true"
     inkscape:snap-bbox="false"
     inkscape:bbox-nodes="false"
     inkscape:object-paths="true"
     inkscape:object-nodes="false"
     inkscape:snap-intersection-paths="true"
     inkscape:snap-smooth-nodes="false"
     inkscape:snap-to-guides="false"
     inkscape:snap-midpoints="false"
     inkscape:snap-grids="false"
     inkscape:snap-nodes="true"
     inkscape:window-width="1440"
     inkscape:window-height="851"
     inkscape:window-x="0"
     inkscape:window-y="0"
     inkscape:window-maximized="1"
     inkscape:snap-object-midpoints="true">
    <inkscape:grid
       type="xygrid"
       id="grid3829" />
  </sodipodi:namedview>
  <metadata
     id="metadata2990">
    <rdf:RDF>
      <cc:Work
         rdf:about="">
        <dc:format>image/svg+xml</dc:format>
        <dc:type
           rdf:resource="http://purl.org/dc/dcmitype/StillImage" />
        <dc:title></dc:title>
      </cc:Work>
    </rdf:RDF>
  </metadata>
  <g
     inkscape:label="Layer 1"
     inkscape:groupmode="layer"
     id="layer1">
    <path
       style="fill:#ffffff;stroke:#000000;stroke-width:0.6278829;stroke-miterlimit:4;stroke-opacity:1;stroke-dasharray:none"
       d="m -18.97177,475.21933 0,-62.34303 0,-62.34303 124.68606,0 124.68605,0 0,124.68606 0,124.68606 -124.68605,0 -124.68606,0 z"
       id="path2995-8"
       inkscape:connector-curvature="0"
       sodipodi:nodetypes="cccccccccc" />
    <path
       style="fill:none;stroke:#000000;stroke-width:1;stroke-linecap:butt;stroke-linejoin:miter;stroke-miterlimit:4;stroke-opacity:1;stroke-dasharray:none"
       d="m 105.71429,350.53327 0,249.37212"
       id="path3827"
       inkscape:connector-curvature="0"
       sodipodi:nodetypes="cc" />
    <path
       style="fill:none;stroke:#000000;stroke-width:1px;stroke-linecap:butt;stroke-linejoin:miter;stroke-opacity:1"
       d="m -18.97177,475.21933 124.68606,0 124.68605,0"
       id="path3831"
       inkscape:connector-curvature="0"
       sodipodi:nodetypes="ccc" />
    <path
       style="fill:none;stroke:#000000;stroke-width:1px;stroke-linecap:butt;stroke-linejoin:miter;stroke-opacity:1"
       d="m 168.07283,350.53327 -0.19732,124.68606"
       id="path3833"
       inkscape:connector-curvature="0"
       sodipodi:nodetypes="cc" />
    <path
       style="fill:none;stroke:#000000;stroke-width:1.00006223px;stroke-linecap:butt;stroke-linejoin:miter;stroke-opacity:1"
       d="m 105.71429,412.8763 62.5081,0.007 62.19347,0.007"
       id="path3835"
       inkscape:connector-curvature="0"
       sodipodi:nodetypes="ccc" />
    <text
       xml:space="preserve"
       style="font-size:40px;font-style:normal;font-weight:normal;line-height:125%;letter-spacing:0px;word-spacing:0px;fill:#000000;fill-opacity:1;stroke:none;font-family:Sans"
       x="111.76009"
       y="363.31473"
       id="text3849-6-5"
       sodipodi:linespacing="125%"><tspan
         sodipodi:role="line"
         id="tspan3851-4-2"
         x="111.76009"
         y="363.31473"
         style="font-size:16px;font-weight:normal;-inkscape-font-specification:Sans">x<tspan
   style="font-size:65.00091553%;baseline-shift:sub"
   id="tspan3974">2</tspan></tspan></text>
    <path
       sodipodi:type="arc"
       style="fill:#ff0000;fill-opacity:1;stroke:#ff0000;stroke-width:1.5;stroke-miterlimit:4;stroke-opacity:1;stroke-dasharray:none"
       id="path3051"
       sodipodi:cx="83.749283"
       sodipodi:cy="381.71869"
       sodipodi:rx="1.9476578"
       sodipodi:ry="1.9476578"
       d="m 85.696941,381.71869 a 1.9476578,1.9476578 0 1 1 -3.895316,0 1.9476578,1.9476578 0 1 1 3.895316,0 z"
       transform="matrix(1.5,0,0,1.5,-19.909634,-159.42631)" />
    <path
       sodipodi:type="arc"
       style="fill:#0000ff;fill-opacity:1;stroke:#0000ff;stroke-width:1.5;stroke-miterlimit:4;stroke-opacity:1;stroke-dasharray:none"
       id="path3051-2"
       sodipodi:cx="83.749283"
       sodipodi:cy="381.71869"
       sodipodi:rx="1.9476578"
       sodipodi:ry="1.9476578"
       d="m 85.696941,381.71869 a 1.9476578,1.9476578 0 1 1 -3.895316,0 1.9476578,1.9476578 0 1 1 3.895316,0 z"
       transform="matrix(1.5,0,0,1.5,-19.909634,-222.04476)" />
    <path
       sodipodi:type="arc"
       style="fill:#0000ff;fill-opacity:1;stroke:#0000ff;stroke-width:1.5;stroke-miterlimit:4;stroke-opacity:1;stroke-dasharray:none"
       id="path3051-2-1"
       sodipodi:cx="83.749283"
       sodipodi:cy="381.71869"
       sodipodi:rx="1.9476578"
       sodipodi:ry="1.9476578"
       d="m 85.696941,381.71869 a 1.9476578,1.9476578 0 1 1 -3.895316,0 1.9476578,1.9476578 0 1 1 3.895316,0 z"
       transform="matrix(1.5,0,0,1.5,-19.909634,-97.358703)" />
    <path
       sodipodi:type="arc"
       style="fill:#0000ff;fill-opacity:1;stroke:#0000ff;stroke-width:1.5;stroke-miterlimit:4;stroke-opacity:1;stroke-dasharray:none"
       id="path3051-2-1-5-2"
       sodipodi:cx="83.749283"
       sodipodi:cy="381.71869"
       sodipodi:rx="1.9476578"
       sodipodi:ry="1.9476578"
       d="m 85.696941,381.71869 a 1.9476578,1.9476578 0 1 1 -3.895316,0 1.9476578,1.9476578 0 1 1 3.895316,0 z"
       transform="matrix(1.5,0,0,1.5,104.77642,-97.358703)" />
    <text
       xml:space="preserve"
       style="font-size:40px;font-style:normal;font-weight:normal;line-height:125%;letter-spacing:0px;word-spacing:0px;fill:#000000;fill-opacity:1;stroke:none;font-family:Sans"
       x="111.76009"
       y="426.87872"
       id="text3849-6-5-8"
       sodipodi:linespacing="125%"><tspan
         sodipodi:role="line"
         id="tspan3851-4-2-7"
         x="111.76009"
         y="426.87872"
         style="font-size:16px;font-weight:normal;-inkscape-font-specification:Sans">x<tspan
   style="font-size:65.00091553%;baseline-shift:sub"
   id="tspan3972">02</tspan></tspan></text>
    <text
       xml:space="preserve"
       style="font-size:40px;font-style:normal;font-weight:normal;line-height:125%;letter-spacing:0px;word-spacing:0px;fill:#000000;fill-opacity:1;stroke:none;font-family:Sans"
       x="111.76009"
       y="489.47552"
       id="text3849-6-5-7"
       sodipodi:linespacing="125%"><tspan
         sodipodi:role="line"
         id="tspan3851-4-2-9"
         x="111.76009"
         y="489.47552"
         style="font-size:16px;font-weight:normal;-inkscape-font-specification:Sans">x<tspan
   style="font-size:65.00091553%;baseline-shift:sub"
   id="tspan3966">0</tspan></tspan></text>
    <text
       xml:space="preserve"
       style="font-size:40px;font-style:normal;font-weight:normal;line-height:125%;letter-spacing:0px;word-spacing:0px;fill:#000000;fill-opacity:1;stroke:none;font-family:Sans"
       x="46.246861"
       y="487.97913"
       id="text3849-6-5-86"
       sodipodi:linespacing="125%"><tspan
         sodipodi:role="line"
         id="tspan3851-4-2-76"
         x="46.246861"
         y="487.97913"
         style="font-size:16px;font-weight:normal;-inkscape-font-specification:Sans">x<tspan
   style="font-size:65.00091553%;baseline-shift:sub"
   id="tspan3970">01</tspan></tspan></text>
    <text
       xml:space="preserve"
       style="font-size:40px;font-style:normal;font-weight:normal;line-height:125%;letter-spacing:0px;word-spacing:0px;fill:#000000;fill-opacity:1;stroke:none;font-family:Sans"
       x="-14.853754"
       y="488.02863"
       id="text3849-6-5-3"
       sodipodi:linespacing="125%"><tspan
         sodipodi:role="line"
         id="tspan3851-4-2-8"
         x="-14.853754"
         y="488.02863"
         style="font-size:16px;font-weight:normal;-inkscape-font-specification:Sans">x<tspan
   style="font-size:65.00091553%;baseline-shift:sub"
   id="tspan3968">1</tspan></tspan></text>
    <path
       sodipodi:type="arc"
       style="fill:#ff0000;fill-opacity:1;stroke:#ff0000;stroke-width:1.5;stroke-miterlimit:4;stroke-opacity:1;stroke-dasharray:none"
       id="path3051-2-1-5-6"
       sodipodi:cx="83.749283"
       sodipodi:cy="381.71869"
       sodipodi:rx="1.9476578"
       sodipodi:ry="1.9476578"
       d="m 85.696941,381.71869 a 1.9476578,1.9476578 0 1 1 -3.895316,0 1.9476578,1.9476578 0 1 1 3.895316,0 z"
       transform="matrix(1.5,0,0,1.5,158.94641,-168.97108)" />
    <path
       sodipodi:type="arc"
       style="fill:#0000ff;fill-opacity:1;stroke:#0000ff;stroke-width:1.5;stroke-miterlimit:4;stroke-opacity:1;stroke-dasharray:none"
       id="path3051-2-1-5-2-4"
       sodipodi:cx="83.749283"
       sodipodi:cy="381.71869"
       sodipodi:rx="1.9476578"
       sodipodi:ry="1.9476578"
       d="m 85.696941,381.71869 a 1.9476578,1.9476578 0 1 1 -3.895316,0 1.9476578,1.9476578 0 1 1 3.895316,0 z"
       transform="matrix(1.5,0,0,1.5,158.94641,-141.92732)" />
    <text
       xml:space="preserve"
       style="font-size:40px;font-style:normal;font-weight:normal;line-height:125%;letter-spacing:0px;word-spacing:0px;fill:#000000;fill-opacity:1;stroke:none;font-family:Sans"
       x="297.87247"
       y="407.21637"
       id="text3849-6-5-75"
       sodipodi:linespacing="125%"><tspan
         sodipodi:role="line"
         id="tspan3851-4-2-1"
         x="297.87247"
         y="407.21637"
         style="font-size:16px;font-weight:normal;-inkscape-font-specification:Sans">hanging nodes</tspan></text>
    <text
       xml:space="preserve"
       style="font-size:40px;font-style:normal;font-weight:normal;line-height:125%;letter-spacing:0px;word-spacing:0px;fill:#000000;fill-opacity:1;stroke:none;font-family:Sans"
       x="298.44278"
       y="435.03357"
       id="text3849-6-5-75-6"
       sodipodi:linespacing="125%"><tspan
         sodipodi:role="line"
         id="tspan3851-4-2-1-6"
         x="298.44278"
         y="435.03357"
         style="font-size:16px;font-weight:normal;-inkscape-font-specification:Sans">coarse nodes</tspan></text>
    <path
       sodipodi:type="arc"
       style="fill:#0000ff;fill-opacity:1;stroke:#0000ff;stroke-width:1.5;stroke-miterlimit:4;stroke-opacity:1;stroke-dasharray:none"
       id="path3051-2-1-5-2-40"
       sodipodi:cx="83.749283"
       sodipodi:cy="381.71869"
       sodipodi:rx="1.9476578"
       sodipodi:ry="1.9476578"
       d="m 85.696941,381.71869 a 1.9476578,1.9476578 0 1 1 -3.895316,0 1.9476578,1.9476578 0 1 1 3.895316,0 z"
       transform="matrix(1.5,0,0,1.5,104.74115,-222.04476)" />
    <path
       style="fill:none;stroke:#000000;stroke-width:1px;stroke-linecap:butt;stroke-linejoin:miter;stroke-opacity:1"
       d="m 167.87551,475.21933 -0.19732,124.68605"
       id="path3833-0"
       inkscape:connector-curvature="0"
       sodipodi:nodetypes="cc" />
    <path
       style="fill:none;stroke:#000000;stroke-width:1.00006223px;stroke-linecap:butt;stroke-linejoin:miter;stroke-opacity:1"
       d="m 105.51697,537.56236 62.5081,0.007 62.19347,0.007"
       id="path3835-9"
       inkscape:connector-curvature="0"
       sodipodi:nodetypes="ccc" />
    <path
       sodipodi:type="arc"
       style="fill:#0000ff;fill-opacity:1;stroke:#0000ff;stroke-width:1.5;stroke-miterlimit:4;stroke-opacity:1;stroke-dasharray:none"
       id="path3051-2-1-1"
       sodipodi:cx="83.749283"
       sodipodi:cy="381.71869"
       sodipodi:rx="1.9476578"
       sodipodi:ry="1.9476578"
       d="m 85.696941,381.71869 a 1.9476578,1.9476578 0 1 1 -3.895316,0 1.9476578,1.9476578 0 1 1 3.895316,0 z"
       transform="matrix(1.5,0,0,1.5,-20.10696,27.327353)" />
    <path
       sodipodi:type="arc"
       style="fill:#0000ff;fill-opacity:1;stroke:#0000ff;stroke-width:1.5;stroke-miterlimit:4;stroke-opacity:1;stroke-dasharray:none"
       id="path3051-2-1-5-2-5"
       sodipodi:cx="83.749283"
       sodipodi:cy="381.71869"
       sodipodi:rx="1.9476578"
       sodipodi:ry="1.9476578"
       d="m 85.696941,381.71869 a 1.9476578,1.9476578 0 1 1 -3.895316,0 1.9476578,1.9476578 0 1 1 3.895316,0 z"
       transform="matrix(1.5,0,0,1.5,104.5791,27.327353)" />
    <path
       sodipodi:type="arc"
       style="fill:#0000ff;fill-opacity:1;stroke:#0000ff;stroke-width:1.5;stroke-miterlimit:4;stroke-opacity:1;stroke-dasharray:none"
       id="path3051-2-1-8"
       sodipodi:cx="83.749283"
       sodipodi:cy="381.71869"
       sodipodi:rx="1.9476578"
       sodipodi:ry="1.9476578"
       d="m 85.696941,381.71869 a 1.9476578,1.9476578 0 1 1 -3.895316,0 1.9476578,1.9476578 0 1 1 3.895316,0 z"
       transform="matrix(1.5,0,0,1.5,-144.41388,-97.372688)" />
    <path
       style="fill:none;stroke:#000000;stroke-width:1px;stroke-linecap:butt;stroke-linejoin:miter;stroke-opacity:1"
       d="M 43.37126,475.20535 43.17394,599.8914"
       id="path3833-0-0"
       inkscape:connector-curvature="0"
       sodipodi:nodetypes="cc" />
    <path
       style="fill:none;stroke:#000000;stroke-width:1.00006223px;stroke-linecap:butt;stroke-linejoin:miter;stroke-opacity:1"
       d="m -18.98728,537.54838 62.5081,0.007 62.19347,0.007"
       id="path3835-9-3"
       inkscape:connector-curvature="0"
       sodipodi:nodetypes="ccc" />
    <path
       sodipodi:type="arc"
       style="fill:#0000ff;fill-opacity:1;stroke:#0000ff;stroke-width:1.5;stroke-miterlimit:4;stroke-opacity:1;stroke-dasharray:none"
       id="path3051-2-1-1-4"
       sodipodi:cx="83.749283"
       sodipodi:cy="381.71869"
       sodipodi:rx="1.9476578"
       sodipodi:ry="1.9476578"
       d="m 85.696941,381.71869 a 1.9476578,1.9476578 0 1 1 -3.895316,0 1.9476578,1.9476578 0 1 1 3.895316,0 z"
       transform="matrix(1.5,0,0,1.5,-144.61121,27.313371)" />
    <path
       sodipodi:type="arc"
       style="fill:#0000ff;fill-opacity:1;stroke:#0000ff;stroke-width:1.5;stroke-miterlimit:4;stroke-opacity:1;stroke-dasharray:none"
       id="path3051-2-1-8-7"
       sodipodi:cx="83.749283"
       sodipodi:cy="381.71869"
       sodipodi:rx="1.9476578"
       sodipodi:ry="1.9476578"
       d="m 85.696941,381.71869 a 1.9476578,1.9476578 0 1 1 -3.895316,0 1.9476578,1.9476578 0 1 1 3.895316,0 z"
       transform="matrix(1.5,0,0,1.5,-143.46865,-222.04476)" />
    <path
       sodipodi:type="arc"
       style="fill:#ff0000;fill-opacity:1;stroke:#ff0000;stroke-width:1.5;stroke-miterlimit:4;stroke-opacity:1;stroke-dasharray:none"
       id="path3051-8"
       sodipodi:cx="83.749283"
       sodipodi:cy="381.71869"
       sodipodi:rx="1.9476578"
       sodipodi:ry="1.9476578"
       d="m 85.696941,381.71869 a 1.9476578,1.9476578 0 1 1 -3.895316,0 1.9476578,1.9476578 0 1 1 3.895316,0 z"
       transform="matrix(1.5,0,0,1.5,-82.252686,-97.358703)" />
    <path
       sodipodi:type="arc"
       style="fill:#00c800;fill-opacity:1;stroke:#00c800;stroke-width:1.50000000000000000;stroke-miterlimit:4;stroke-opacity:1;stroke-dasharray:none"
       id="path3051-2-1-5-2-4-7"
       sodipodi:cx="83.749283"
       sodipodi:cy="381.71869"
       sodipodi:rx="1.9476578"
       sodipodi:ry="1.9476578"
       d="m 85.696941,381.71869 a 1.9476578,1.9476578 0 1 1 -3.895316,0 1.9476578,1.9476578 0 1 1 3.895316,0 z"
       transform="matrix(1.5,0,0,1.5,158.94641,-116.66114)" />
    <text
       xml:space="preserve"
       style="font-size:40px;font-style:normal;font-weight:normal;line-height:125%;letter-spacing:0px;word-spacing:0px;fill:#000000;fill-opacity:1;stroke:none;font-family:Sans"
       x="298.44278"
       y="460.29977"
       id="text3849-6-5-75-6-7"
       sodipodi:linespacing="125%"><tspan
         sodipodi:role="line"
         id="tspan3851-4-2-1-6-8"
         x="298.44278"
         y="460.29977"
         style="font-size:16px;font-weight:normal;-inkscape-font-specification:Sans">refined nodes</tspan></text>
    <path
       sodipodi:type="arc"
       style="fill:#00c800;fill-opacity:1;stroke:#00c800;stroke-width:1.5;stroke-miterlimit:4;stroke-opacity:1;stroke-dasharray:none"
       id="path3051-2-1-5-2-4-7-6"
       sodipodi:cx="83.749283"
       sodipodi:cy="381.71869"
       sodipodi:rx="1.9476578"
       sodipodi:ry="1.9476578"
       d="m 85.696941,381.71869 a 1.9476578,1.9476578 0 1 1 -3.895316,0 1.9476578,1.9476578 0 1 1 3.895316,0 z"
       transform="matrix(1.5,0,0,1.5,42.251586,-97.358703)" />
    <path
       sodipodi:type="arc"
       style="fill:#00c800;fill-opacity:1;stroke:#00c800;stroke-width:1.5;stroke-miterlimit:4;stroke-opacity:1;stroke-dasharray:none"
       id="path3051-2-1-5-2-4-7-66"
       sodipodi:cx="83.749283"
       sodipodi:cy="381.71869"
       sodipodi:rx="1.9476578"
       sodipodi:ry="1.9476578"
       d="m 85.696941,381.71869 a 1.9476578,1.9476578 0 1 1 -3.895316,0 1.9476578,1.9476578 0 1 1 3.895316,0 z"
       transform="matrix(1.5,0,0,1.5,42.350235,-159.69476)" />
    <path
       sodipodi:type="arc"
       style="fill:#00c800;fill-opacity:1;stroke:#00c800;stroke-width:1.5;stroke-miterlimit:4;stroke-opacity:1;stroke-dasharray:none"
       id="path3051-2-1-5-2-4-7-3"
       sodipodi:cx="83.749283"
       sodipodi:cy="381.71869"
       sodipodi:rx="1.9476578"
       sodipodi:ry="1.9476578"
       d="m 85.696941,381.71869 a 1.9476578,1.9476578 0 1 1 -3.895316,0 1.9476578,1.9476578 0 1 1 3.895316,0 z"
       transform="matrix(1.5,0,0,1.5,42.448906,-222.04476)" />
    <path
       sodipodi:type="arc"
       style="fill:#00c800;fill-opacity:1;stroke:#00c800;stroke-width:1.5;stroke-miterlimit:4;stroke-opacity:1;stroke-dasharray:none"
       id="path3051-2-1-5-2-4-7-0"
       sodipodi:cx="83.749283"
       sodipodi:cy="381.71869"
       sodipodi:rx="1.9476578"
       sodipodi:ry="1.9476578"
       d="m 85.696941,381.71869 a 1.9476578,1.9476578 0 1 1 -3.895316,0 1.9476578,1.9476578 0 1 1 3.895316,0 z"
       transform="matrix(1.5,0,0,1.5,104.77642,-159.68774)" />
    <path
       sodipodi:type="arc"
       style="fill:#00c800;fill-opacity:1;stroke:#00c800;stroke-width:1.5;stroke-miterlimit:4;stroke-opacity:1;stroke-dasharray:none"
       id="path3051-2-1-5-2-4-7-8"
       sodipodi:cx="83.749283"
       sodipodi:cy="381.71869"
       sodipodi:rx="1.9476578"
       sodipodi:ry="1.9476578"
       d="m 85.696941,381.71869 a 1.9476578,1.9476578 0 1 1 -3.895316,0 1.9476578,1.9476578 0 1 1 3.895316,0 z"
       transform="matrix(1.5,0,0,1.5,104.77642,-34.281374)" />
    <path
       sodipodi:type="arc"
       style="fill:#00c800;fill-opacity:1;stroke:#00c800;stroke-width:1.5;stroke-miterlimit:4;stroke-opacity:1;stroke-dasharray:none"
       id="path3051-2-1-5-2-4-7-83"
       sodipodi:cx="83.749283"
       sodipodi:cy="381.71869"
       sodipodi:rx="1.9476578"
       sodipodi:ry="1.9476578"
       d="m 85.696941,381.71869 a 1.9476578,1.9476578 0 1 1 -3.895316,0 1.9476578,1.9476578 0 1 1 3.895316,0 z"
       transform="matrix(1.5,0,0,1.5,42.054735,27.030905)" />
    <path
       sodipodi:type="arc"
       style="fill:#00c800;fill-opacity:1;stroke:#00c800;stroke-width:1.5;stroke-miterlimit:4;stroke-opacity:1;stroke-dasharray:none"
       id="path3051-2-1-5-2-4-7-4"
       sodipodi:cx="83.749283"
       sodipodi:cy="381.71869"
       sodipodi:rx="1.9476578"
       sodipodi:ry="1.9476578"
       d="m 85.696941,381.71869 a 1.9476578,1.9476578 0 1 1 -3.895316,0 1.9476578,1.9476578 0 1 1 3.895316,0 z"
       transform="matrix(1.5,0,0,1.5,42.152915,-35.008701)" />
    <path
       sodipodi:type="arc"
       style="fill:#00c800;fill-opacity:1;stroke:#00c800;stroke-width:1.5;stroke-miterlimit:4;stroke-opacity:1;stroke-dasharray:none"
       id="path3051-2-1-5-2-4-7-47"
       sodipodi:cx="83.749283"
       sodipodi:cy="381.71869"
       sodipodi:rx="1.9476578"
       sodipodi:ry="1.9476578"
       d="m 85.696941,381.71869 a 1.9476578,1.9476578 0 1 1 -3.895316,0 1.9476578,1.9476578 0 1 1 3.895316,0 z"
       transform="matrix(1.5,0,0,1.5,-82.448812,26.572548)" />
    <path
       sodipodi:type="arc"
       style="fill:#00c800;fill-opacity:1;stroke:#00c800;stroke-width:1.5;stroke-miterlimit:4;stroke-opacity:1;stroke-dasharray:none"
       id="path3051-2-1-5-2-4-7-1"
       sodipodi:cx="83.749283"
       sodipodi:cy="381.71869"
       sodipodi:rx="1.9476578"
       sodipodi:ry="1.9476578"
       d="m 85.696941,381.71869 a 1.9476578,1.9476578 0 1 1 -3.895316,0 1.9476578,1.9476578 0 1 1 3.895316,0 z"
       transform="matrix(1.5,0,0,1.5,-82.351335,-35.022681)" />
    <path
       sodipodi:type="arc"
       style="fill:#00c800;fill-opacity:1;stroke:#00c800;stroke-width:1.5;stroke-miterlimit:4;stroke-opacity:1;stroke-dasharray:none"
       id="path3051-2-1-5-2-4-7-40"
       sodipodi:cx="83.749283"
       sodipodi:cy="381.71869"
       sodipodi:rx="1.9476578"
       sodipodi:ry="1.9476578"
       d="m 85.696941,381.71869 a 1.9476578,1.9476578 0 1 1 -3.895316,0 1.9476578,1.9476578 0 1 1 3.895316,0 z"
       transform="matrix(1.5,0,0,1.5,-144.59569,-35.029652)" />
    <path
       sodipodi:type="arc"
       style="fill:#00c800;fill-opacity:1;stroke:#00c800;stroke-width:1.5;stroke-miterlimit:4;stroke-opacity:1;stroke-dasharray:none"
       id="path3051-2-1-5-2-4-7-4-2"
       sodipodi:cx="83.749283"
       sodipodi:cy="381.71869"
       sodipodi:rx="1.9476578"
       sodipodi:ry="1.9476578"
       d="m 85.696941,381.71869 a 1.9476578,1.9476578 0 1 1 -3.895316,0 1.9476578,1.9476578 0 1 1 3.895316,0 z"
       transform="matrix(1.5,0,0,1.5,-19.909634,-35.015653)" />
  </g>
</svg>
